<?xml version="1.0" encoding="UTF-8" standalone="no"?>
<!-- Created with Inkscape (http://www.inkscape.org/) -->

<svg
   xmlns:dc="http://purl.org/dc/elements/1.1/"
   xmlns:cc="http://creativecommons.org/ns#"
   xmlns:rdf="http://www.w3.org/1999/02/22-rdf-syntax-ns#"
   xmlns:svg="http://www.w3.org/2000/svg"
   xmlns="http://www.w3.org/2000/svg"
   xmlns:sodipodi="http://sodipodi.sourceforge.net/DTD/sodipodi-0.dtd"
   xmlns:inkscape="http://www.inkscape.org/namespaces/inkscape"
   version="1.1"
   id="svg4539"
   width="67.374741"
   height="64.012955"
   viewBox="0 0 67.374742 64.012955"
   sodipodi:docname="appicon.svg"
   inkscape:version="0.92.1 r15371"
   inkscape:export-filename="/home/reto/assets/appicon-black.png"
   inkscape:export-xdpi="300.80002"
   inkscape:export-ydpi="300.80002">
  <metadata
     id="metadata4545">
    <rdf:RDF>
      <cc:Work
         rdf:about="">
        <dc:format>image/svg+xml</dc:format>
        <dc:type
           rdf:resource="http://purl.org/dc/dcmitype/StillImage" />
        <dc:title></dc:title>
      </cc:Work>
    </rdf:RDF>
  </metadata>
  <defs
     id="defs4543" />
  <sodipodi:namedview
     pagecolor="#ffffff"
     bordercolor="#666666"
     borderopacity="1"
     objecttolerance="10"
     gridtolerance="10"
     guidetolerance="10"
     inkscape:pageopacity="0"
     inkscape:pageshadow="2"
     inkscape:window-width="1324"
     inkscape:window-height="708"
     id="namedview4541"
     showgrid="false"
     inkscape:zoom="5.2626221"
     inkscape:cx="36.460287"
     inkscape:cy="36.357655"
     inkscape:window-x="42"
     inkscape:window-y="23"
     inkscape:window-maximized="1"
     inkscape:current-layer="svg4539"
     fit-margin-top="0"
     fit-margin-left="0"
     fit-margin-right="0"
     fit-margin-bottom="-0.8"
     scale-x="0.8"
     showguides="false" />
  <ellipse
     style="fill:#000000;fill-opacity:1;stroke-width:0.97813314"
     id="path5123"
     cx="33.68737"
     cy="32.406479"
     rx="33.68737"
     ry="32.406479" />
  <g
     id="g5144"
     transform="translate(8.0291735,12.447127)">
    <path
       sodipodi:nodetypes="sssssssscs"
       style="fill:#fdd801;stroke-width:0.824341"
       d="m 14.67761,41.231367 c -1.259164,-2.23268 -1.570861,-12.349368 -0.47497,-15.41586 1.11481,-3.11943 5.185929,-3.994377 6.893513,-1.481522 1.282805,1.887764 1.560335,13.357752 0.400377,16.547262 -0.893708,2.45743 -5.497164,2.6938 -6.81892,0.35012 z m 4.663962,-8.814445 c -0.159324,-4.856321 -0.439063,-6.148481 -1.388704,-6.414696 -1.039645,-0.291444 -1.189191,0.535191 -1.189191,6.573291 0,7.44822 0.367881,8.86551 1.835833,7.07269 0.659281,-0.80519 0.881755,-2.97321 0.742062,-7.231285 z"
       id="path4692-3"
       inkscape:connector-curvature="0" />
    <path
       sodipodi:nodetypes="ccccssssccc"
       style="fill:#fdd801;stroke-width:0.824341"
       d="m 33.876437,32.324086 0.05729,-9.75 h 4.365169 c 2.766278,0.223918 3.769344,2.475634 0.295022,2.725245 -1.607183,-0.274439 -1.942039,0.494853 -1.942039,2.801952 0,1.819038 0.429693,2.825399 1.359077,3.183054 1.781327,0.685507 1.751163,2.289749 -0.04308,2.289749 -1.172543,0 -1.367265,0.532156 -1.189192,3.249999 0.163205,2.49095 0.570038,3.32463 1.741901,3.56955 3.400314,0.71066 1.222768,2.18045 -3.230415,2.18045 -2.084626,-1.656407 -1.434206,-6.763797 -1.413725,-10.249999 z"
       id="path4692-1"
       inkscape:connector-curvature="0" />
    <path
       sodipodi:nodetypes="cccccczcscscccc"
       style="fill:#fdd801;stroke-width:0.75134891"
       d="m 24.133091,31.54035 0.409245,-5.850655 c 0,0 -13.959921,-2.853591 -1.835256,-2.728369 3.276753,0.06043 5.025592,0.158204 5.635905,0.184309 0.20607,2.033773 0.276178,4.151482 1.000002,10.04553 1.444215,14.245322 0.35075,-7.266147 0.714296,-10.537614 0,0 1.266123,0.08096 2.4447,0.02796 1.178584,-0.053 2.445603,-0.08031 2.445603,-0.08031 -1.14791,0.954518 -2.065701,0.819764 -2.427371,1.968718 -1.596276,5.070989 -0.148466,17.994994 -1.033917,17.485478 -3.633905,-0.287629 -3.016518,0.29755 -3.841871,-5.929178 -0.836674,-6.312106 -1.147108,-9.853662 -1.147108,-9.853662 3.4e-5,6.325685 -0.153854,8.852468 -0.114346,10.035746 -0.209712,4.848954 -0.205954,6.622059 -0.977733,6.782373 -3.410921,-1.731398 -1.528376,-5.387649 -1.272149,-11.550332 z"
       id="path4692-0"
       inkscape:connector-curvature="0" />
  </g>
  <g
     id="g5151"
     style="fill:#000000;fill-opacity:1;stroke:#fdd801;stroke-width:0.56692913;stroke-linecap:round;stroke-linejoin:round;stroke-miterlimit:4;stroke-dasharray:none;stroke-opacity:1"
     transform="translate(7.8122045,11.399508)">
    <path
       sodipodi:nodetypes="ccccsccsscscccccccccsssssssscccccsssssssccssss"
       style="fill:#000000;fill-opacity:1;stroke:#fdd801;stroke-width:0.56692913;stroke-linecap:round;stroke-linejoin:round;stroke-miterlimit:4;stroke-dasharray:none;stroke-opacity:1"
       d="m 8.5266732,9.952432 0.057258,-9.74999998 h 4.3651668 4.365166 L 17.938596,5.452432 c 0.64227,5.400843 1.098301,5.028179 1.835561,-1.5 l 0.42351,-3.74999998 h 7.060115 c 8.746641,0 10.546289,0.85130498 10.546289,4.98881798 0,1.671076 -0.3231,3.819714 -0.718007,4.774751 -0.523747,1.266641 -0.444778,2.818628 0.291889,5.73643 0.555441,2.2 1.031437,3.4375 1.057776,2.75 2.542274,-3.154176 4.301401,1.717376 -0.211221,1.75 -2.970785,0 -2.979224,-0.0103 -3.889201,-4.75 l -0.91196,-4.749999 -0.225253,4.749999 -0.225254,4.75 h -4.719535 -4.719534 l -0.04601,-9.749999 c -0.05144,-10.91262228 -0.568176,-10.46597998 -2.377106,2.054799 -1.004886,6.95547 -1.283828,7.77163 -2.563322,7.5 C 17.33007,19.748811 16.9516,18.485221 16.059905,11.702432 15.071585,4.18465 14.896493,3.683359 13.155137,3.38601 11.547953,3.111571 11.302083,3.42253 11.302083,5.729629 c 0,1.819038 0.429689,2.825399 1.359077,3.183054 1.781329,0.685507 1.751164,2.289749 -0.04306,2.289749 -1.172546,0 -1.367265,0.532156 -1.189192,3.249999 0.163206,2.49095 0.570036,3.32463 1.7419,3.56955 3.40031,0.71066 1.222765,2.18045 -3.2304142,2.18045 C 7.5217987,19.382465 8.4473351,23.462303 8.5266732,9.952432 Z m 21.8024788,0.75 v -7.5 h -2.038615 c -1.812104,0 -2.038614,0.333333 -2.038614,3 0,2 0.339769,3 1.019307,3 0.560619,0 1.019307,0.45 1.019307,1 0,0.55 -0.458688,1 -1.019307,1 -0.711898,0 -1.019307,1.055556 -1.019307,3.499999 0,3.22222 0.161798,3.5 2.038614,3.5 h 2.038615 z m 4.632017,-4.827119 c 0.152386,-1.89427 -0.09505,-2.672881 -0.849423,-2.672881 -0.736082,0 -1.064442,0.95115 -1.064442,3.083333 0,3.825966 1.600679,3.48268 1.913865,-0.410452 z"
       id="path4692"
       inkscape:connector-curvature="0" />
    <path
       sodipodi:nodetypes="csccsssczsssc"
       style="fill:#000000;fill-opacity:1;stroke:#fdd801;stroke-width:0.56692913;stroke-linecap:round;stroke-linejoin:round;stroke-miterlimit:4;stroke-dasharray:none;stroke-opacity:1"
       d="M 42.209176,37.997855 C 42.470258,32.269296 43.030971,30.216437 41.511117,18.998682 39.785399,6.261486 41.431608,2.912225 33.327762,0.42088207 c 4.471132,0.28062095 5.929421,0.16555619 7.897679,0.29651095 1.448798,0 0.987402,0.93530298 1.465043,6.98119998 0.916665,11.602999 1.487115,11.469722 2.479998,2.09803 0.708414,-6.68663 1.002874,-9.28031198 2.460786,-9.28031198 h 1.740781 c 0,0 -2.770246,15.09381598 -3.499899,21.41934298 -0.729654,6.325528 -0.605416,8.28507 -0.605416,13.056154 0,8.05442 0.501913,8.674722 -1.151236,8.674722 -1.556306,0 -2.153724,-0.240273 -1.906322,-5.668672 z"
       id="path4686-9"
       inkscape:connector-curvature="0" />
    <g
       transform="matrix(0.6795381,0,0,0.88008093,-0.37975834,-6.9210855)"
       id="g4558"
       style="fill:#000000;fill-opacity:1;stroke:#fdd801;stroke-width:0.73309551;stroke-linecap:round;stroke-linejoin:round;stroke-miterlimit:4;stroke-dasharray:none;stroke-opacity:1">
      <path
         style="fill:#000000;fill-opacity:1;stroke:#fdd801;stroke-width:0.73309551;stroke-linecap:round;stroke-linejoin:round;stroke-miterlimit:4;stroke-dasharray:none;stroke-opacity:1"
         d="M 8.4759448,13.475078 C 9.4328363,10.422153 13.691191,7.0799323 12.99908,9.1696463 8.8127601,21.80955 8.4585591,23.5872 6.902212,30.115546 5.3458648,36.643891 4.8150605,40.866973 4.8150605,40.866973 L 19.815826,40.05049 18.704658,44.023835 c 0,0 -17.6370264,2.931772 -17.4082956,-0.370389 0.4577877,-6.60903 6.2226909,-27.125443 7.1795824,-30.178368 z"
         id="path4552"
         inkscape:connector-curvature="0"
         sodipodi:nodetypes="cszcccsc" />
      <path
         sodipodi:nodetypes="csccc"
         style="fill:#000000;fill-opacity:1;stroke:#fdd801;stroke-width:0.73309551;stroke-linecap:round;stroke-linejoin:round;stroke-miterlimit:4;stroke-dasharray:none;stroke-opacity:1"
         d="m 12.408041,34.023326 c 0,0 -3.8759923,14.609637 -3.8890878,21.852966 -0.0037,2.049076 5.3706448,-0.740779 5.3706448,-0.740779 l 1.481557,-20.556604 z"
         id="path4554"
         inkscape:connector-curvature="0" />
    </g>
  </g>
</svg>
