<?xml version="1.0" encoding="UTF-8" standalone="no"?>
<!-- Created with Inkscape (http://www.inkscape.org/) -->

<svg
   xmlns:dc="http://purl.org/dc/elements/1.1/"
   xmlns:cc="http://creativecommons.org/ns#"
   xmlns:rdf="http://www.w3.org/1999/02/22-rdf-syntax-ns#"
   xmlns:svg="http://www.w3.org/2000/svg"
   xmlns="http://www.w3.org/2000/svg"
   xmlns:sodipodi="http://sodipodi.sourceforge.net/DTD/sodipodi-0.dtd"
   xmlns:inkscape="http://www.inkscape.org/namespaces/inkscape"
   version="1.1"
   id="svg4539"
   width="182.61121"
   height="29.999998"
   viewBox="0 0 182.61121 29.999998"
   sodipodi:docname="logo.svg"
   inkscape:version="0.92.1 r15371"
   inkscape:export-filename="/home/reto/assets/logo.png"
   inkscape:export-xdpi="300.80002"
   inkscape:export-ydpi="300.80002">
  <metadata
     id="metadata4545">
    <rdf:RDF>
      <cc:Work
         rdf:about="">
        <dc:format>image/svg+xml</dc:format>
        <dc:type
           rdf:resource="http://purl.org/dc/dcmitype/StillImage" />
        <dc:title></dc:title>
      </cc:Work>
    </rdf:RDF>
  </metadata>
  <defs
     id="defs4543" />
  <sodipodi:namedview
     pagecolor="#ffffff"
     bordercolor="#666666"
     borderopacity="1"
     objecttolerance="10"
     gridtolerance="10"
     guidetolerance="10"
     inkscape:pageopacity="1"
     inkscape:pageshadow="2"
     inkscape:window-width="1324"
     inkscape:window-height="708"
     id="namedview4541"
     showgrid="false"
     inkscape:zoom="3.8181818"
     inkscape:cx="11.803079"
     inkscape:cy="31.641374"
     inkscape:window-x="42"
     inkscape:window-y="23"
     inkscape:window-maximized="1"
     inkscape:current-layer="svg4539"
     fit-margin-top="0"
     fit-margin-left="0"
     fit-margin-right="0"
     fit-margin-bottom="0"
     scale-x="0.8" />
  <path
     inkscape:connector-curvature="0"
     id="path4692"
     d="M 0,15 V 0 h 21.999999 22 v 15 14.999999 h -22 H 0 Z m 46.999999,0 V 5 h 4.5 c 3.333333,0 4.360714,0.2311397 4.5,1.5 0.139286,1.2688603 -0.944444,1.5 -2.5,1.5 -2.024064,0 -2.5,0.493759 -2.5,2.59362 0,1.752615 0.648518,2.76321 2,3.116631 1.1,0.287656 2,0.920528 2,1.40638 0,0.485853 -0.9,0.883369 -2,0.883369 -1.703704,0 -2,0.666667 -2,4.499999 0,3.83333 -0.296296,4.5 -2,4.5 -1.866667,0 -2,-0.66667 -2,-9.999999 z m 10.930168,8.415859 C 56.077205,21.183179 55.618514,11.066491 57.231211,8 58.871749,4.88057 64.862765,4.005623 67.37562,6.518478 c 1.887763,1.887764 2.296173,13.357751 0.589195,16.547261 -1.315177,2.45743 -8.089567,2.6938 -10.034648,0.35012 z m 6.863432,-8.814445 c -0.234458,-4.85632 -0.646116,-6.14848 -2.0436,-6.414695 -1.529926,-0.291444 -1.75,0.535191 -1.75,6.57329 0,7.44822 0.541369,8.86551 2.701591,7.07269 0.970188,-0.80519 1.297584,-2.97321 1.092009,-7.231285 z M 69.999999,15 V 5 h 3.777494 c 6.893307,0 10.458179,4.872128 6.646574,9.083904 -1.439027,1.590107 -1.402911,2.118183 0.415739,6.078745 l 1.991672,4.33735 L 82.915738,14.75 82.999998,5 h 6.423726 6.423726 l 0.918759,5.25 c 0.945157,5.400843 1.616247,5.028179 2.701189,-1.5 L 100.09063,5 h 10.38958 C 123.35166,5 126,5.851305 126,9.988818 c 0,1.671076 -0.47547,3.819714 -1.05661,4.774751 -0.77074,1.266641 -0.65453,2.818628 0.42954,5.73643 0.81738,2.2 1.51785,3.4375 1.55661,2.75 3.74118,-3.154176 6.32989,1.717376 -0.31083,1.75 -4.37177,0 -4.38419,-0.0103 -5.7233,-4.75 L 119.55338,15.5 l -0.33148,4.749999 -0.33148,4.75 H 111.94521 105 L 104.9323,15.25 c -0.0757,-10.912622 -0.83612,-10.46598 -3.49812,2.054799 -1.478778,6.95547 -1.889266,7.77163 -3.772153,7.5 C 95.870709,24.546379 95.313758,23.282789 94.001551,16.5 92.54715,8.982218 92.289488,8.480927 89.726929,8.183578 c -2.365113,-0.274439 -2.726931,0.03652 -2.726931,2.343619 0,1.819038 0.632324,2.825399 2,3.183054 C 91.62138,14.395758 91.57699,16 88.936638,16 c -1.725504,0 -2.01205,0.532156 -1.75,3.249999 0.240172,2.49095 0.838857,3.32463 2.563358,3.56955 5.003855,0.71066 1.799406,2.18045 -4.753838,2.18045 h -7.003839 l -1.203566,-4.5 C 76.126791,18.025 75.228518,16 74.792591,16 c -0.435927,0 -0.792595,2.025 -0.792595,4.499999 0,3.83333 -0.296296,4.5 -2,4.5 -1.866667,0 -2,-0.66667 -2,-9.999999 z M 115,15.5 V 8 h -3 c -2.66667,0 -3,0.333333 -3,3 0,2 0.5,3 1.5,3 0.825,0 1.5,0.45 1.5,1 0,0.55 -0.675,1 -1.5,1 -1.04762,0 -1.5,1.055556 -1.5,3.499999 0,3.22222 0.2381,3.5 3,3.5 h 3 z M 77.668128,9.577541 c -0.950259,-2.476334 -3.668129,-1.916336 -3.668129,0.755792 0,1.283334 0.310714,2.644048 0.690476,3.02381 1.124252,1.124252 3.636003,-2.063969 2.977653,-3.779602 z m 44.148292,1.09534 C 122.04067,8.778611 121.67655,8 120.56642,8 119.48321,8 119,8.95115 119,11.083333 c 0,3.825966 2.35554,3.48268 2.81642,-0.410452 z"
     style="fill:#fdd801"
     sodipodi:nodetypes="cccccccccscszsssssssssssssssscsccssscccccsccsscscccccccccsssssssscscssssccccsssssssccssssssss" />
  <path
     inkscape:connector-curvature="0"
     id="path4686"
     d="m 8.6083145,23.941738 c 0,-1.90404 -1.1192553,-6.966543 -2.4872341,-11.249996 C 3.0716525,3.1432905 3.0744742,3.4036465 6.0204167,3.4036465 c 2.0342925,0 2.5178139,0.625703 3.0870128,3.99476 0.9336965,5.5265075 1.9113855,5.6583895 3.3055175,0.445885 0.994702,-3.71908 1.584862,-4.440645 3.631956,-4.440645 h 2.444266 l -2.440427,7.1751525 c -1.342235,3.946334 -2.440427,9.346339 -2.440427,11.999999 0,4.47984 -0.178767,4.82485 -2.5,4.82485 -2.1852365,0 -2.5000005,-0.43587 -2.5000005,-3.46191 z M 23.608315,15.403647 V 3.4036465 h 4.565741 c 6.370703,0 8.434259,1.328082 8.434259,5.428195 0,2.2039825 -0.569534,3.5763785 -1.657412,3.9938365 -1.470829,0.56441 -1.414542,0.862277 0.5,2.645944 2.730066,2.543444 2.805203,7.284236 0.157412,9.932026 -1.466667,1.46667 -3.333333,2 -7,2 h -5 z m 7.8,7.800001 c 1.542501,-1.5425 1.542501,-5.0575 0,-6.600001 -2.114463,-2.114463 -2.8,-1.306508 -2.8,3.300001 0,4.60651 0.685537,5.41446 2.8,3.3 z m 0.420612,-12.550001 c 0.634428,-2.4461525 -0.13123,-4.2500005 -1.803945,-4.2500005 -0.907408,0 -1.416667,1.078432 -1.416667,3 0,3.2904395 2.445262,4.2395075 3.220612,1.2500005 z"
     style="fill:#000000" />
  <path
     inkscape:connector-curvature="0"
     id="path4686-9"
     d="m 132.8356,23.756126 c 0,-1.90404 -1.11926,-6.966543 -2.48724,-11.249997 -3.04943,-9.5484508 -3.0466,-9.2880948 -0.10066,-9.2880948 2.03429,0 2.51781,0.6257029 3.08701,3.99476 0.9337,5.5265068 1.91139,5.6583888 3.30552,0.445885 0.9947,-3.7190801 1.58486,-4.440645 3.63195,-4.440645 h 2.44427 l -2.44043,7.1751528 c -1.34223,3.946334 -2.44042,9.346339 -2.44042,11.999999 0,4.47984 -0.17877,4.82485 -2.5,4.82485 -2.18524,0 -2.5,-0.43587 -2.5,-3.46191 z"
     style="fill:#000000"
     sodipodi:nodetypes="ssssssccsss" />
  <path
     inkscape:connector-curvature="0"
     id="path4692-3"
     d="m 144.15278,23.339868 c -1.85297,-2.23268 -2.31166,-12.349368 -0.69896,-15.4158595 1.64054,-3.11943 7.63155,-3.994377 10.14441,-1.481522 1.88776,1.887764 2.29617,13.3577515 0.58919,16.5472615 -1.31517,2.45743 -8.08956,2.6938 -10.03464,0.35012 z m 6.86343,-8.814445 c -0.23446,-4.8563205 -0.64612,-6.1484805 -2.0436,-6.4146955 -1.52993,-0.291444 -1.75,0.535191 -1.75,6.5732905 0,7.44822 0.54137,8.86551 2.70159,7.07269 0.97019,-0.80519 1.29758,-2.97321 1.09201,-7.231285 z"
     style="fill:#fdd801"
     sodipodi:nodetypes="sssssssscs" />
  <path
     inkscape:connector-curvature="0"
     id="path4692-1"
     d="m 172.40554,14.432587 0.0843,-9.7499998 h 6.42373 c 4.07082,0.223918 5.54692,2.475634 0.43415,2.725245 -2.36511,-0.274439 -2.85788,0.494853 -2.85788,2.8019518 0,1.819038 0.63233,2.825399 2,3.183054 2.62138,0.685507 2.57699,2.289749 -0.0634,2.289749 -1.7255,0 -2.01205,0.532156 -1.75,3.249999 0.24017,2.49095 0.83886,3.32463 2.56336,3.56955 5.00386,0.71066 1.79941,2.18045 -4.75384,2.18045 -3.06771,-1.656407 -2.11056,-6.763797 -2.08042,-10.249999 z"
     style="fill:#fdd801"
     sodipodi:nodetypes="ccccssssccc" />
  <path
     inkscape:connector-curvature="0"
     id="path4692-0"
     d="m 158.06735,13.648851 0.60224,-5.8506545 c 0,0 -20.54325,-2.8535911 -2.70074,-2.7283694 4.82203,0.060428 7.3956,0.1582038 8.29373,0.1843089 0.30325,2.0337737 0.40642,4.1514827 1.47159,10.04553 2.12529,14.245322 0.51616,-7.2661466 1.05115,-10.5376136 0,0 1.86321,0.080961 3.59759,0.027962 1.73439,-0.052999 3.59892,-0.080306 3.59892,-0.080306 -1.68925,0.9545174 -3.03986,0.8197636 -3.57209,1.968718 -2.34906,5.0709886 -0.21848,17.9949936 -1.5215,17.4854776 -5.34761,-0.287629 -4.43907,0.29755 -5.65365,-5.929178 -1.23124,-6.312106 -1.68807,-9.8536616 -1.68807,-9.8536616 5e-5,6.3256846 -0.22641,8.8524676 -0.16827,10.0357456 -0.30861,4.848954 -0.30308,6.622059 -1.43882,6.782373 -5.01947,-1.731398 -2.24914,-5.387649 -1.87208,-11.550332 z"
     style="fill:#fdd801;stroke-width:0.91145402"
     sodipodi:nodetypes="cccccczcscscccc" />
</svg>
