<?xml version="1.0" encoding="UTF-8" standalone="no"?>
<!-- Created with Inkscape (http://www.inkscape.org/) -->

<svg
   xmlns:dc="http://purl.org/dc/elements/1.1/"
   xmlns:cc="http://creativecommons.org/ns#"
   xmlns:rdf="http://www.w3.org/1999/02/22-rdf-syntax-ns#"
   xmlns:svg="http://www.w3.org/2000/svg"
   xmlns="http://www.w3.org/2000/svg"
   xmlns:sodipodi="http://sodipodi.sourceforge.net/DTD/sodipodi-0.dtd"
   xmlns:inkscape="http://www.inkscape.org/namespaces/inkscape"
   version="1.1"
   id="svg4539"
   width="72.41967"
   height="43.831455"
   viewBox="0 0 72.419672 43.831455"
   sodipodi:docname="logo.svg"
   inkscape:version="0.92.1 r15371"
   inkscape:export-filename="/home/reto/assets/logo.png"
   inkscape:export-xdpi="300.80002"
   inkscape:export-ydpi="300.80002">
  <metadata
     id="metadata4545">
    <rdf:RDF>
      <cc:Work
         rdf:about="">
        <dc:format>image/svg+xml</dc:format>
        <dc:type
           rdf:resource="http://purl.org/dc/dcmitype/StillImage" />
        <dc:title></dc:title>
      </cc:Work>
    </rdf:RDF>
  </metadata>
  <defs
     id="defs4543" />
  <sodipodi:namedview
     pagecolor="#ffffff"
     bordercolor="#666666"
     borderopacity="1"
     objecttolerance="10"
     gridtolerance="10"
     guidetolerance="10"
     inkscape:pageopacity="1"
     inkscape:pageshadow="2"
     inkscape:window-width="1324"
     inkscape:window-height="708"
     id="namedview4541"
     showgrid="false"
     inkscape:zoom="2.6998622"
     inkscape:cx="-27.248967"
     inkscape:cy="-35.440951"
     inkscape:window-x="42"
     inkscape:window-y="23"
     inkscape:window-maximized="1"
     inkscape:current-layer="svg4539"
     fit-margin-top="0"
     fit-margin-left="0"
     fit-margin-right="0"
     fit-margin-bottom="0"
     scale-x="0.8"
     showguides="false" />
  <path
     inkscape:connector-curvature="0"
     id="path4692"
     d="m 12.31211,9.952432 0.08426,-9.74999998 h 6.423726 6.423726 L 26.162581,5.452432 c 0.945157,5.400843 1.616247,5.028179 2.701189,-1.5 l 0.623232,-3.74999998 h 10.38958 c 12.87145,0 15.51979,0.85130498 15.51979,4.98881798 0,1.671076 -0.47547,3.819714 -1.05661,4.774751 -0.77074,1.266641 -0.65453,2.818628 0.42954,5.73643 0.81738,2.2 1.51785,3.4375 1.55661,2.75 3.74118,-3.154176 6.32989,1.717376 -0.31083,1.75 -4.37177,0 -4.38419,-0.0103 -5.7233,-4.75 l -1.34203,-4.749999 -0.33148,4.749999 -0.33148,4.75 h -6.94521 -6.94521 l -0.0677,-9.749999 c -0.0757,-10.91262228 -0.83612,-10.46597998 -3.49812,2.054799 -1.478778,6.95547 -1.889266,7.77163 -3.772153,7.5 -1.791318,-0.25842 -2.348269,-1.52201 -3.660476,-8.304799 C 21.943522,4.18465 21.68586,3.683359 19.123301,3.38601 16.758188,3.111571 16.39637,3.42253 16.39637,5.729629 c 0,1.819038 0.632324,2.825399 2,3.183054 2.621382,0.685507 2.576992,2.289749 -0.06336,2.289749 -1.725504,0 -2.01205,0.532156 -1.75,3.249999 0.240172,2.49095 0.838857,3.32463 2.563358,3.56955 5.003855,0.71066 1.799406,2.18045 -4.753838,2.18045 -3.559181,-0.819966 -2.197173,3.259872 -2.08042,-10.249999 z m 32.084262,0.75 v -7.5 h -3 c -2.66667,0 -3,0.333333 -3,3 0,2 0.5,3 1.5,3 0.825,0 1.5,0.45 1.5,1 0,0.55 -0.675,1 -1.5,1 -1.04762,0 -1.5,1.055556 -1.5,3.499999 0,3.22222 0.2381,3.5 3,3.5 h 3 z m 6.81642,-4.827119 c 0.22425,-1.89427 -0.13987,-2.672881 -1.25,-2.672881 -1.08321,0 -1.56642,0.95115 -1.56642,3.083333 0,3.825966 2.35554,3.48268 2.81642,-0.410452 z"
     style="fill:#000000"
     sodipodi:nodetypes="ccccsccsscscccccccccsssssssscccccsssssssccssss" />
  <path
     inkscape:connector-curvature="0"
     id="path4686-9"
     d="M 61.878871,37.997855 C 62.263077,32.269296 63.088215,30.216437 60.851616,18.998682 58.31207,6.261486 60.734611,2.912225 48.80909,0.42088207 c 6.579664,0.28062095 8.725665,0.16555619 11.622129,0.29651095 2.132034,0 1.453049,0.93530298 2.155939,6.98119998 1.348954,11.602999 2.188421,11.469722 3.649535,2.09803 1.042494,-6.68663 1.475818,-9.28031198 3.621263,-9.28031198 h 2.561712 c 0,0 -4.07666,15.09381598 -5.150409,21.41934298 -1.073749,6.325528 -0.890923,8.28507 -0.890923,13.056154 0,8.05442 0.738609,8.674722 -1.694144,8.674722 -2.290242,0 -3.169395,-0.240273 -2.805321,-5.668672 z"
     style="fill:#000000;fill-opacity:1;stroke-width:1.37270224"
     sodipodi:nodetypes="csccsssczsssc" />
  <path
     inkscape:connector-curvature="0"
     id="path4692-3"
     d="m 21.363754,41.231367 c -1.85297,-2.23268 -2.31166,-12.349368 -0.69896,-15.41586 1.64054,-3.11943 7.63155,-3.994377 10.14441,-1.481522 1.88776,1.887764 2.29617,13.357752 0.58919,16.547262 -1.31517,2.45743 -8.08956,2.6938 -10.03464,0.35012 z m 6.86343,-8.814445 c -0.23446,-4.856321 -0.64612,-6.148481 -2.0436,-6.414696 -1.52993,-0.291444 -1.75,0.535191 -1.75,6.573291 0,7.44822 0.54137,8.86551 2.70159,7.07269 0.97019,-0.80519 1.29758,-2.97321 1.09201,-7.231285 z"
     style="fill:#fdd801"
     sodipodi:nodetypes="sssssssscs" />
  <path
     inkscape:connector-curvature="0"
     id="path4692-1"
     d="m 49.616514,32.324086 0.0843,-9.75 h 6.42373 c 4.07082,0.223918 5.54692,2.475634 0.43415,2.725245 -2.36511,-0.274439 -2.85788,0.494853 -2.85788,2.801952 0,1.819038 0.63233,2.825399 2,3.183054 2.62138,0.685507 2.57699,2.289749 -0.0634,2.289749 -1.7255,0 -2.01205,0.532156 -1.75,3.249999 0.24017,2.49095 0.83886,3.32463 2.56336,3.56955 5.00386,0.71066 1.79941,2.18045 -4.75384,2.18045 -3.06771,-1.656407 -2.11056,-6.763797 -2.08042,-10.249999 z"
     style="fill:#fdd801"
     sodipodi:nodetypes="ccccssssccc" />
  <path
     inkscape:connector-curvature="0"
     id="path4692-0"
     d="m 35.278324,31.54035 0.60224,-5.850655 c 0,0 -20.54325,-2.853591 -2.70074,-2.728369 4.82203,0.06043 7.3956,0.158204 8.29373,0.184309 0.30325,2.033773 0.40642,4.151482 1.47159,10.04553 2.12529,14.245322 0.51616,-7.266147 1.05115,-10.537614 0,0 1.86321,0.08096 3.59759,0.02796 1.73439,-0.053 3.59892,-0.08031 3.59892,-0.08031 -1.68925,0.954518 -3.03986,0.819764 -3.57209,1.968718 -2.34906,5.070989 -0.21848,17.994994 -1.5215,17.485478 -5.34761,-0.287629 -4.43907,0.29755 -5.65365,-5.929178 -1.23124,-6.312106 -1.68807,-9.853662 -1.68807,-9.853662 5e-5,6.325685 -0.22641,8.852468 -0.16827,10.035746 -0.30861,4.848954 -0.30308,6.622059 -1.43882,6.782373 -5.01947,-1.731398 -2.24914,-5.387649 -1.87208,-11.550332 z"
     style="fill:#fdd801;stroke-width:0.91145402"
     sodipodi:nodetypes="cccccczcscscccc" />
  <g
     id="g4558"
     transform="matrix(1,0,0,0.88008093,-0.79448626,-6.9210855)">
    <path
       sodipodi:nodetypes="cszcccsc"
       inkscape:connector-curvature="0"
       id="path4552"
       d="M 8.4759448,13.475078 C 9.4328363,10.422153 13.691191,7.0799323 12.99908,9.1696463 8.8127601,21.80955 8.4585591,23.5872 6.902212,30.115546 5.3458648,36.643891 4.8150605,40.866973 4.8150605,40.866973 L 19.815826,40.05049 18.704658,44.023835 c 0,0 -17.6370264,2.931772 -17.4082956,-0.370389 0.4577877,-6.60903 6.2226909,-27.125443 7.1795824,-30.178368 z"
       style="fill:#000000;stroke:#000000;stroke-width:1px;stroke-linecap:butt;stroke-linejoin:miter;stroke-opacity:1" />
    <path
       inkscape:connector-curvature="0"
       id="path4554"
       d="m 12.408041,34.023326 c 0,0 -3.8759923,14.609637 -3.8890878,21.852966 -0.0037,2.049076 5.3706448,-0.740779 5.3706448,-0.740779 l 1.481557,-20.556604 z"
       style="fill:#000000;stroke:#000000;stroke-width:1px;stroke-linecap:butt;stroke-linejoin:miter;stroke-opacity:1"
       sodipodi:nodetypes="csccc" />
  </g>
</svg>
